# xmcd CD database file
#
# Track frame offsets:
#	150
#	15435
#	39291
#	54494
#	55477
#	69834
#	83131
#	101254
#	103194
#	121789
#	137417
#	155376
#	157188
#	173258
#
# Disc length: 2557 seconds
#
# Revision: 0
# Processed by: cddbd v1.5.2PL0 Copyright (c) Steve Scherf et al.
# Submitted via: CDex 1.51
#
DISCID=9f09fb0e
DTITLE=Hank Flloyd And The Swerving Headlights - Interstellar Cattledrive
DYEAR=2000
DGENRE=Country
TTITLE0=FIrst Class on the Mothership
TTITLE1=Beyond Repair
TTITLE2=Ballad of Zeke and Earl
TTITLE3=Phoenix Arizona 1
TTITLE4=Tiny Rhinestones
TTITLE5=B Movies
TTITLE6=Fall on my Knees
TTITLE7=Phoenix, Arizona 2
TTITLE8=Prozac Paddywack
TTITLE9=Rodeo Queen
TTITLE10=Interstellar Cattledrive 1
TTITLE11=Phoenix Arizona 3
TTITLE12=I Saw Them Lights
TTITLE13=Interstellar Cattledrive 2
EXTD=YEAR: 2000
EXTT0=
EXTT1=
EXTT2=
EXTT3=
EXTT4=
EXTT5=
EXTT6=
EXTT7=
EXTT8=
EXTT9=
EXTT10=
EXTT11=
EXTT12=
EXTT13=
PLAYORDER=
